<svg width="303" height="114" viewBox="0 0 303 114" fill="none" xmlns="http://www.w3.org/2000/svg">
<path d="M30.8559 48.12C27.3519 48.12 24.6159 49.8 22.9359 53.016L22.1199 48.6H17.3199V84.12H23.3679V71.496C25.0479 74.04 27.6399 75.48 30.8559 75.48C37.0959 75.48 40.7919 70.296 40.7919 61.56C40.7919 53.112 37.0959 48.12 30.8559 48.12ZM28.9839 70.008C24.9039 70.008 23.3679 67.752 23.3679 61.56C23.3679 55.752 24.9039 53.592 28.9839 53.592C33.0159 53.592 34.5039 55.848 34.5039 62.04C34.5039 67.848 33.0159 70.008 28.9839 70.008ZM70.0551 67.464V57.048C70.0551 51.576 66.4071 48.12 60.0231 48.12C57.1431 48.12 53.6871 48.84 50.2311 50.088V55.56C53.3031 54.12 55.9431 53.496 58.9191 53.496C62.3751 53.496 63.9591 54.888 63.9591 58.056V58.488C52.1031 58.584 47.6391 62.136 47.6391 68.04C47.6391 72.648 50.5191 75.48 55.8951 75.48C59.9271 75.48 62.7591 73.896 64.6311 70.728L65.4471 75H71.4471L70.0551 67.464ZM57.7671 70.056C55.0791 70.056 53.9751 68.904 53.9751 66.936C53.9751 63.816 56.6631 62.472 63.9591 62.424V64.2C63.9591 67.8 61.5111 70.056 57.7671 70.056ZM102.102 47.064C97.8782 47.064 93.3182 49.656 90.4862 53.592L89.5742 48.6H79.7822V53.976H84.7742V69.624H78.1982V75H100.566V69.624H90.8222V57.432C93.9422 55.08 97.5422 53.832 102.102 53.832V47.064ZM112.405 49.176L123.109 59.592L112.405 70.008L115.141 72.744L128.293 59.592L115.141 46.44L112.405 49.176ZM128.629 46.44L125.893 49.176L133.621 56.664H191.365V52.824H135.013L128.629 46.44ZM128.629 72.744L135.013 66.36H191.365V62.52H133.621L125.893 70.008L128.629 72.744ZM202.979 73.512C206.051 75 209.603 75.48 212.531 75.48C219.539 75.48 222.947 72.216 222.947 67.704C222.947 57.768 207.299 62.376 207.299 55.704C207.299 53.592 208.835 52.104 213.491 52.104C215.987 52.104 218.387 52.44 221.795 53.928V49.848C218.963 48.696 215.651 48.12 212.867 48.12C206.243 48.12 202.931 51.48 202.931 56.088C202.931 66.024 218.483 61.752 218.483 67.992C218.483 70.056 216.707 71.496 212.147 71.496C209.027 71.496 206.099 70.824 202.979 69.384V73.512ZM255.33 61.032C255.33 52.776 251.538 48.12 244.386 48.12C236.466 48.12 232.002 53.88 232.002 62.616C232.002 71.016 236.514 75.48 243.858 75.48C247.17 75.48 250.434 74.616 253.314 72.936V68.808C250.626 70.488 247.602 71.496 244.29 71.496C239.442 71.496 236.898 69.288 236.514 63.432H255.282C255.33 62.616 255.33 61.896 255.33 61.032ZM244.05 52.104C248.706 52.104 250.482 54.168 250.818 59.736H236.562C236.946 54.168 239.25 52.104 244.05 52.104ZM285.937 58.152C285.937 52.008 281.521 48.12 275.233 48.12C267.649 48.12 263.137 53.352 263.137 62.52C263.137 70.776 267.649 75.48 274.993 75.48C278.353 75.48 281.617 74.568 284.449 72.84V68.664C281.377 70.728 278.833 71.496 275.569 71.496C269.761 71.496 267.601 68.808 267.601 61.848C267.601 54.696 269.569 51.96 275.137 51.96C279.601 51.96 281.473 53.688 281.473 58.152H285.937Z" fill="black"/>
</svg>
