<svg width="303" height="114" fill="none" xmlns="http://www.w3.org/2000/svg"><path d="M30.9 48.1a8.5 8.5 0 0 0-8 5l-.8-4.5h-4.8v35.5h6V71.5c1.7 2.5 4.3 4 7.6 4 6.2 0 9.9-5.2 9.9-14 0-8.4-3.7-13.4-10-13.4Zm-2 22c-4 0-5.5-2.3-5.5-8.5 0-5.8 1.5-8 5.6-8 4 0 5.5 2.2 5.5 8.4 0 5.8-1.5 8-5.5 8Zm41.2-2.6V57c0-5.4-3.7-8.9-10-8.9a30 30 0 0 0-9.9 2v5.5c3.1-1.5 5.7-2.1 8.7-2.1 3.5 0 5 1.4 5 4.6v.4c-11.8 0-16.3 3.6-16.3 9.5 0 4.6 3 7.5 8.3 7.5 4 0 6.9-1.6 8.7-4.8l.8 4.3h6l-1.3-7.5ZM57.8 70C55 70 54 68.9 54 66.9c0-3 2.7-4.4 10-4.5v1.8c0 3.6-2.5 5.9-6.2 5.9ZM102 47c-4.2 0-8.8 2.6-11.6 6.5l-1-5h-9.7V54h5v15.6h-6.6V75h22.4v-5.4h-9.8V57.4a18 18 0 0 1 11.3-3.6v-6.7Zm10.3 2L123 59.5 112.4 70l2.7 2.7 13.2-13.1L115 46.4l-2.7 2.8Zm16.2-2.7-2.7 2.8 7.7 7.5h57.8v-3.9H135l-6.4-6.4Zm0 26.3 6.4-6.3h56.4v-3.9h-57.8L126 70l2.7 2.7Zm74.4.8c3 1.5 6.6 2 9.5 2 7 0 10.4-3.3 10.4-7.8 0-10-15.6-5.3-15.6-12 0-2.1 1.5-3.6 6.2-3.6 2.5 0 4.9.3 8.3 1.8v-4a24.8 24.8 0 0 0-9-1.8c-6.6 0-9.9 3.4-9.9 8 0 10 15.6 5.7 15.6 11.9 0 2-1.8 3.5-6.4 3.5-3 0-6-.7-9.1-2.1v4.1ZM255.3 61c0-8.2-3.8-12.9-11-12.9-7.8 0-12.3 5.8-12.3 14.5 0 8.4 4.5 12.9 11.9 12.9 3.3 0 6.5-.9 9.4-2.6v-4a16.9 16.9 0 0 1-9 2.6c-4.9 0-7.4-2.2-7.8-8h18.8V61ZM244 52.1c4.7 0 6.5 2 6.8 7.6h-14.2c.3-5.5 2.7-7.6 7.5-7.6Zm42 6c0-6-4.5-10-10.8-10-7.6 0-12 5.3-12 14.4 0 8.3 4.4 13 11.8 13 3.4 0 6.6-1 9.4-2.7v-4.1c-3 2-5.6 2.8-8.8 2.8-5.8 0-8-2.7-8-9.7 0-7.1 2-9.8 7.5-9.8 4.5 0 6.4 1.7 6.4 6.2h4.4Z" fill="#000"/></svg>